<svg xmlns="http://www.w3.org/2000/svg" version="1.1" xmlns:xlink="http://www.w3.org/1999/xlink" xmlns:svgjs="http://svgjs.dev/svgjs" width="1500" height="1500" viewBox="0 0 1500 1500"><rect width="1500" height="1500" fill="#463746"></rect><g transform="matrix(0.6666666666666666,0,0,0.6666666666666666,249.39393939393938,438.5856950067477)"><svg viewBox="0 0 396 247" data-background-color="#463746" preserveAspectRatio="xMidYMid meet" height="935" width="1500" xmlns="http://www.w3.org/2000/svg" xmlns:xlink="http://www.w3.org/1999/xlink"><g id="tight-bounds" transform="matrix(1,0,0,1,0.2400000000000091,-0.09999999999999432)"><svg viewBox="0 0 395.52 247.2" height="247.2" width="395.52"><g><svg></svg></g><g><svg viewBox="0 0 395.52 247.2" height="247.2" width="395.52"><g transform="matrix(1,0,0,1,85.2920449704142,47.215199999999996)"><svg viewBox="0 0 224.9359100591716 152.7696" height="152.7696" width="224.9359100591716"><g><svg viewBox="0 0 224.9359100591716 152.7696" height="152.7696" width="224.9359100591716"><g><svg viewBox="0 0 224.9359100591716 152.7696" height="152.7696" width="224.9359100591716"><g><svg viewBox="0 0 224.9359100591716 152.7696" height="152.7696" width="224.9359100591716"><g id="textblocktransform"><svg viewBox="0 0 224.9359100591716 152.7696" height="152.7696" width="224.9359100591716" id="textblock"><g><svg viewBox="0 0 224.9359100591716 152.7696" height="152.7696" width="224.9359100591716"><g transform="matrix(1,0,0,1,0,0)"><svg width="224.9359100591716" viewBox="4.88 -24.7 37.32 25.349999999999998" height="152.7696" data-palette-color="#ffffff"><path d="M9.63 0L4.88 0 4.88-24.13 9.63-24.13 9.63 0ZM9.63-10.75L8.33-10.75Q8.33-15.38 9.29-18.44 10.25-21.5 11.99-23 13.73-24.5 16.07-24.5L16.07-24.5Q16.78-24.5 17.39-24.4 18-24.3 18.6-24.13L18.6-24.13 18.43-19.4Q17.75-19.58 16.96-19.71 16.18-19.85 15.53-19.85L15.53-19.85Q13.48-19.85 12.18-18.76 10.88-17.68 10.25-15.64 9.63-13.6 9.63-10.75L9.63-10.75ZM32.35 0.65L32.35 0.65Q29.4 0.65 26.85-0.93 24.3-2.5 22.75-5.35 21.2-8.2 21.2-12.05L21.2-12.05Q21.2-16.1 22.75-18.91 24.3-21.73 26.85-23.21 29.4-24.7 32.35-24.7L32.35-24.7Q34.52-24.7 36.22-24.01 37.92-23.33 39.15-22.16 40.37-21 41.14-19.55 41.9-18.1 42.2-16.55L42.2-16.55 37.37-16.3Q36.85-18.18 35.53-19.31 34.22-20.45 32.3-20.45L32.3-20.45Q30.67-20.45 29.23-19.54 27.8-18.63 26.91-16.76 26.02-14.9 26.02-12.05L26.02-12.05Q26.02-9.4 26.85-7.53 27.67-5.65 29.1-4.65 30.52-3.65 32.3-3.65L32.3-3.65Q34.85-3.65 36.11-4.89 37.37-6.13 37.37-8.3L37.37-8.3 42.2-8.3Q42.2-5.78 41.02-3.75 39.85-1.73 37.64-0.54 35.42 0.65 32.35 0.65Z" opacity="1" transform="matrix(1,0,0,1,0,0)" fill="#ffffff" class="wordmark-text-0" data-fill-palette-color="primary" id="text-0"></path></svg></g></svg></g></svg></g></svg></g></svg></g></svg></g></svg></g><g><path d="M236.068 0c68.262 0 123.6 55.338 123.6 123.6 0 68.262-55.338 123.6-123.6 123.6-30.402 0-58.24-10.976-79.768-29.183l11.147 0c19.26 14.022 42.974 22.294 68.621 22.295 64.458 0 116.712-52.254 116.712-116.712 0-64.458-52.254-116.712-116.712-116.712-25.647 0-49.361 8.272-68.621 22.295l-11.147 0c21.528-18.206 49.366-29.183 79.768-29.183z" fill="#eaa79c" stroke="transparent" data-fill-palette-color="tertiary"></path></g></svg></g><defs></defs></svg><rect width="395.52" height="247.2" fill="none" stroke="none" visibility="hidden"></rect></g></svg></g></svg>